<svg width="20" height="24" viewBox="0 0 20 24" fill="none" xmlns="http://www.w3.org/2000/svg">
<path fill-rule="evenodd" clip-rule="evenodd" d="M18.4798 8.13889C18.8368 8.65931 18.7297 9.36732 18.2348 9.75886C18.2102 9.77827 18.1744 9.80343 18.1297 9.8348C17.7193 10.1228 16.5629 10.9344 16.5629 12.6285C16.5629 13.725 17.0221 14.4357 17.4926 14.8969C17.8898 15.2862 18.2828 15.4817 18.3773 15.5288C18.4024 15.5412 18.4065 15.5433 18.3841 15.5357C18.954 15.7284 19.2932 16.3132 19.1774 16.9035C19.1478 17.0544 19.0094 17.5016 18.782 18.0505C18.542 18.6297 18.1721 19.3984 17.6448 20.1814L17.6405 20.1877L17.6405 20.1877C17.2312 20.7873 16.7314 21.5133 16.1283 22.0793C15.5041 22.665 14.6707 23.1738 13.5922 23.1738C12.689 23.1738 12.0759 22.9006 11.6352 22.7042C11.6133 22.6944 11.5919 22.6849 11.5708 22.6755C11.1769 22.5009 10.889 22.3832 10.3692 22.3832C9.86801 22.3832 9.54176 22.5071 9.10779 22.6938C9.07781 22.7067 9.0468 22.7202 9.01476 22.7341C8.57619 22.9249 7.94414 23.1998 7.10804 23.1998C6.07905 23.1998 5.28002 22.7062 4.66611 22.1283C4.07292 21.5699 3.54691 20.8314 3.06797 20.1479L3.06242 20.1399L3.06245 20.1399C1.8017 18.3093 0.799805 15.5212 0.799805 12.8358C0.799805 8.37362 3.73543 5.68624 6.92968 5.68624C7.61477 5.68624 8.23188 5.8599 8.72729 6.04008C8.78375 4.71078 9.43627 3.49907 10.0944 2.73615C10.9882 1.68342 12.4693 0.854831 13.851 0.800734C14.4321 0.77798 14.9459 1.17523 15.0702 1.74338C15.1188 1.96544 15.1362 2.19757 15.1362 2.40167C15.1362 3.6027 14.6902 4.75922 14.0508 5.6491C15.0508 5.71649 17.074 6.08966 18.4798 8.13889ZM12.8916 5.18845C13.3419 4.64425 13.6956 3.94535 13.8506 3.2057C13.8863 3.03537 13.9115 2.86288 13.9249 2.68962C13.9323 2.59379 13.9362 2.49773 13.9362 2.40167C13.9362 2.2591 13.9235 2.11653 13.8979 1.99982C13.5614 2.01299 13.203 2.09456 12.8483 2.22942C12.8085 2.24457 12.7687 2.2604 12.7289 2.27688C12.0785 2.54674 11.4508 2.99129 11.0062 3.51638C10.4457 4.16447 9.92333 5.18845 9.92333 6.22547C9.92333 6.33298 9.93554 6.44056 9.94727 6.51384C9.95251 6.54655 9.95765 6.57243 9.96157 6.58842C10.0037 6.59697 10.0626 6.60558 10.1271 6.61042C10.1601 6.6129 10.1946 6.6144 10.2291 6.6144C10.8738 6.61431 11.6384 6.29585 12.258 5.8108C12.4954 5.62496 12.7116 5.41466 12.8916 5.18845ZM12.7722 6.92305C12.2413 7.03372 11.7555 7.22968 11.3243 7.40358C10.9045 7.5729 10.5365 7.72132 10.2293 7.7498C10.2292 7.7498 10.2292 7.74981 10.2291 7.74981C10.1943 7.75303 10.1603 7.75471 10.1271 7.75471C10.0028 7.75471 9.87228 7.73452 9.73574 7.70031C9.5693 7.6586 9.39389 7.59605 9.20984 7.52379C9.10712 7.48347 9.00172 7.44012 8.89367 7.3957C8.31236 7.15665 7.65476 6.88624 6.92968 6.88624C4.48392 6.88624 1.9998 8.94723 1.9998 12.8358C1.9998 15.2596 2.91698 17.8131 4.05075 19.4593C5.03157 20.8591 5.8851 21.9998 7.10804 21.9998C7.688 21.9998 8.11325 21.8162 8.56043 21.623C9.05619 21.4089 9.5789 21.1832 10.3692 21.1832C11.1672 21.1832 11.6443 21.3951 12.1045 21.5995C12.5331 21.7899 12.9471 21.9738 13.5922 21.9738C14.9297 21.9738 15.8087 20.7425 16.6495 19.5111C17.0612 18.8996 17.3685 18.2931 17.5851 17.7984C17.6593 17.6289 17.7229 17.4725 17.7763 17.3335C17.924 16.9499 17.9946 16.6993 17.9998 16.6725C17.9233 16.6467 15.3629 15.5967 15.3629 12.6285C15.3629 10.4825 16.7701 9.32439 17.2983 8.94944C17.3558 8.90859 17.4029 8.87704 17.4366 8.85452C17.438 8.85362 17.4393 8.85273 17.4406 8.85186C17.4654 8.83532 17.4824 8.82398 17.4903 8.81771C17.3596 8.62725 17.2223 8.45507 17.0803 8.29941C16.9513 8.15797 16.8184 8.03018 16.6833 7.91471C15.4591 6.86876 14.0471 6.83451 13.592 6.8344C13.3085 6.8344 13.0348 6.86829 12.7722 6.92305Z" fill="black"/>
</svg>
